<?xml version="1.0" encoding="UTF-8" standalone="no"?>
<!-- Generator: Adobe Illustrator 25.0.0, SVG Export Plug-In . SVG Version: 6.00 Build 0)  -->

<svg
   version="1.1"
   id="Layer_1"
   x="0px"
   y="0px"
   viewBox="0 0 272 96"
   xml:space="preserve"
   sodipodi:docname="AtariLoginButtonDown-ST.svg"
   width="272"
   height="96"
   inkscape:version="1.2.2 (b0a8486541, 2022-12-01)"
   xmlns:inkscape="http://www.inkscape.org/namespaces/inkscape"
   xmlns:sodipodi="http://sodipodi.sourceforge.net/DTD/sodipodi-0.dtd"
   xmlns="http://www.w3.org/2000/svg"
   xmlns:svg="http://www.w3.org/2000/svg"><defs
   id="defs11" /><sodipodi:namedview
   id="namedview9"
   pagecolor="#505050"
   bordercolor="#ffffff"
   borderopacity="1"
   inkscape:showpageshadow="0"
   inkscape:pageopacity="0"
   inkscape:pagecheckerboard="1"
   inkscape:deskcolor="#505050"
   showgrid="false"
   inkscape:zoom="0.19666667"
   inkscape:cx="587.28814"
   inkscape:cy="538.98305"
   inkscape:window-width="1536"
   inkscape:window-height="923"
   inkscape:window-x="0"
   inkscape:window-y="0"
   inkscape:window-maximized="1"
   inkscape:current-layer="Layer_1" />
<style
   type="text/css"
   id="style2">
	.st0{fill:#EDEDED;}
</style>
<path
   d="M 272,96 C 181.3,96 90.7,96 0,96 0,64 0,32 0,0 c 90.7,0 181.3,0 272,0 0,32 0,64 0,96 z M 8.1,79.8 c 85.3,0 170.5,0 255.8,0 0,-21.3 0,-42.4 0,-63.7 -85.3,0 -170.5,0 -255.8,0 0,21.4 0,42.5 0,63.7 z"
   id="path4" />
<path
   class="st0"
   d="m 8.1,79.8 c 0,-21.3 0,-42.4 0,-63.7 85.3,0 170.5,0 255.8,0 0,21.3 0,42.4 0,63.7 -85.3,0 -170.5,0 -255.8,0 z"
   id="path6" />
</svg>
