<?xml version="1.0" encoding="UTF-8" standalone="no"?>
<!-- Generator: Adobe Illustrator 25.0.0, SVG Export Plug-In . SVG Version: 6.00 Build 0)  -->

<svg
   version="1.1"
   id="Layer_1"
   x="0px"
   y="0px"
   viewBox="0 0 916.20001 916.20001"
   xml:space="preserve"
   sodipodi:docname="Untitled-3.svg"
   width="916.20001"
   height="916.20001"
   inkscape:version="1.2.2 (b0a8486541, 2022-12-01)"
   xmlns:inkscape="http://www.inkscape.org/namespaces/inkscape"
   xmlns:sodipodi="http://sodipodi.sourceforge.net/DTD/sodipodi-0.dtd"
   xmlns="http://www.w3.org/2000/svg"
   xmlns:svg="http://www.w3.org/2000/svg"><defs
   id="defs181" /><sodipodi:namedview
   id="namedview179"
   pagecolor="#505050"
   bordercolor="#ffffff"
   borderopacity="1"
   inkscape:showpageshadow="0"
   inkscape:pageopacity="0"
   inkscape:pagecheckerboard="1"
   inkscape:deskcolor="#505050"
   showgrid="false"
   inkscape:zoom="0.55625733"
   inkscape:cx="421.56748"
   inkscape:cy="474.60048"
   inkscape:window-width="1536"
   inkscape:window-height="923"
   inkscape:window-x="0"
   inkscape:window-y="0"
   inkscape:window-maximized="1"
   inkscape:current-layer="Layer_1" />
<style
   type="text/css"
   id="style2">
	.st0{fill:#FDFDFD;}
	.st1{fill:#FEFEFE;}
	.st2{fill:#929292;}
	.st3{fill:#8D8D8D;}
	.st4{fill:#888888;}
	.st5{fill:#9D9D9D;}
	.st6{fill:#E3E3E3;}
	.st7{fill:#020202;}
	.st8{fill:#030303;}
	.st9{fill:#010101;}
	.st10{fill:#808080;}
	.st11{fill:#FCFCFC;}
	.st12{fill:#292929;}
</style>








<path
   class="st2"
   d="m 305,855 c -19.6,0 -39.2,0 -59,0 0,20.5 0,40.8 0,61 -41.3,0 -82.7,0 -124,0 0,-20.2 0,-40.3 0,-60.5 -0.1,-0.1 -0.2,-0.3 -0.3,-0.4 -0.1,-0.1 -0.3,-0.2 -0.4,-0.2 -20,0 -39.9,0 -60.1,0 0,-81.6 0,-163 0,-244.6 1.7,-1.3 3.9,-1.5 6.2,-1.5 16.5,0.1 33,0 49.5,0 1.6,0 3.3,0 5.1,0 0,-20 0,-39.8 0,-59.5 1,-0.5 1.8,-0.9 3.2,-1.7 18.8,0 38.2,0 57.8,0 0,-19.9 0,-39.7 0,-59.9 0.8,0 1.4,0 2,0 0,18.7 0,37.3 0,56 0,2.1 -0.1,4.1 -1.6,6.1 -19.7,0 -39.4,0 -59.5,0 0,1.8 0,3.4 0,5.1 0,16.7 0,33.3 0,50 0,2.1 -0.3,4.1 -1.6,6 -19.7,0 -39.4,0 -59.1,0 0,80.7 0,161.3 0,241.7 19.7,0 39.1,0 58.8,0 0,-60.5 0,-120.7 0,-181 0,-0.1 0.1,-0.3 0.1,-0.4 0.1,-0.1 0.2,-0.2 0.3,-0.4 0.5,0 1,0 1.5,0 0,60.6 0,121.2 0,182 40.2,0 80.1,0 120,0 20.3,0 40.7,0 61,0 0.1,0.9 0.1,1.5 0.1,2.2 z m -180.9,58.8 c 40.2,0 80,0 119.7,0 0.6,-13.1 0.4,-54.7 -0.3,-58.7 -39.8,0 -79.6,0 -119.4,0 0,19.7 0,39.1 0,58.7 z"
   id="path20" />
<path
   class="st2"
   d="m 916,246 c -20.2,0 -40.5,0 -61,0 0,19.8 0,39.4 0,59 -0.7,0 -1.3,0 -2,0 0,-20.3 0,-40.7 0,-61 0,-39.9 0,-79.8 0,-120 -60.8,0 -121.4,0 -182,0 0,-0.6 0,-1.2 0,-2 60.7,0 121,0 181.3,0 0.1,0 0.3,-0.1 0.4,-0.2 0.1,-0.1 0.2,-0.2 0.1,-0.1 0,-19.7 0,-39.1 0,-58.6 -80.6,0 -161.1,0 -241.7,0 0,19.9 0,39.7 0,59.4 -1,0.5 -1.8,0.9 -3.3,1.7 -18.8,0 -38.2,0 -57.9,0 0,6.8 0,13.4 0,20.1 0,6.7 0,13.3 0,20 0,6.6 0,13.2 0,19.8 -1,0 -1.5,0 -2,0 0,-18.7 0,-37.3 0,-56 0,-2.1 0.1,-4.1 1.6,-6.1 19.7,0 39.4,0 59.5,0 0,-1.8 0,-3.4 0,-5.1 0,-16.7 0,-33.3 0,-50 0,-1.9 0.5,-3.7 0.8,-5.7 81.7,0 163.2,0 244.8,0 -0.1,-0.1 0.1,0 0.2,0.1 0.1,0.1 0.2,0.3 0.2,0.4 0,20 0,39.9 0,60.3 20.4,0 40.7,0 61,0 0,41.3 0,82.7 0,124 z m -60.9,-2.2 c 19.9,0 39.3,0 58.8,0 0.7,-17.6 0.4,-115.4 -0.3,-119.7 -19.5,0 -38.9,0 -58.4,0 -0.1,40 -0.1,79.8 -0.1,119.7 z"
   id="path22" />
<path
   class="st3"
   d="m 306,0 c 0.3,1.4 0.8,2.7 1,4.1 0.2,1.5 0,3 0,4.5 0,36.1 0,72.1 0,108.2 0,1.6 0,3.3 0,5.3 -0.8,0 -1.4,0 -2,0 0,-39.9 0,-79.8 0,-120 -20.5,0 -40.7,0 -61,0 0,-0.7 0,-1.3 0,-2 C 264.7,0 285.3,0 306,0 Z"
   id="path24" />
<path
   class="st3"
   d="m 0,244 c 0.7,0 1.3,0 2,0 0,20.3 0,40.5 0,61 40.2,0 80.1,0 120,0 0,0.5 0,1 0,1.8 -0.6,0.1 -1.2,0.2 -1.8,0.2 -38.2,0 -76.4,0 -114.6,0.1 -2,0 -3.6,-1.2 -5.6,-1.1 0,-20.7 0,-41.3 0,-62 z"
   id="path26" />
<path
   class="st4"
   d="m 793,916 c -0.3,-1.4 -0.8,-2.7 -1,-4.1 -0.2,-1.5 0,-3 0,-4.5 0,-37.8 0,-75.6 0,-113.4 0,-0.6 0,-1.2 0,-2 0.8,0 1.4,0 2,0 0,0.3 0,0.7 0,1 0,40.7 0,81.3 0,122 0,0.3 0,0.7 0,1 -0.3,0 -0.7,0 -1,0 z"
   id="path28" />
<path
   class="st4"
   d="m 916,855 c -20.3,0 -40.7,0 -61,0 0,-0.6 0,-1.2 0,-2 19.7,0 39,0 58.3,0 0.1,0 0.3,-0.1 0.4,-0.2 0.1,-0.1 0.2,-0.2 0.3,-0.4 0,-19.8 0,-39.6 0,-59.5 0.7,0 1.3,0 2,0 0,20.8 0,41.4 0,62.1 z"
   id="path30" />
<ellipse
   class="st5"
   cx="915.5"
   cy="701.5"
   rx="0.69999999"
   ry="43.099998"
   id="ellipse32" />
<path
   class="st5"
   d="m 915,306 c 0.3,0 0.7,0 1,0 0,20.3 0,40.7 0,61 -0.3,-0.3 -0.7,-0.7 -1,-1 0,-20 0,-40 0,-60 z"
   id="path34" />
<path
   class="st5"
   d="m 306,916 c 0,-0.3 0,-0.7 0,-1 20,0 40,0 60,0 0.3,0.3 0.7,0.7 1,1 -20.3,0 -40.7,0 -61,0 z"
   id="path36" />
<ellipse
   class="st5"
   cx="824"
   cy="915.5"
   rx="42.400002"
   ry="0.69999999"
   id="ellipse38" />
<ellipse
   class="st5"
   cx="702"
   cy="915.5"
   rx="42.400002"
   ry="0.69999999"
   id="ellipse40" />
<circle
   class="st6"
   cx="671.5"
   cy="915.5"
   r="0.69999999"
   id="circle42" />
<path
   class="st7"
   d="m 548,184 c 0.5,0 1,0 2,0 0,-6.6 0,-13.2 0,-19.8 0,-6.7 0,-13.3 0,-20 0,-6.6 0,-13.3 0,-20.1 19.6,0 39.1,0 57.9,0 1.4,-0.7 2.3,-1.2 3.3,-1.7 0,-19.7 0,-39.5 0,-59.4 80.6,0 161.1,0 241.7,0 0,19.5 0,38.9 0,58.6 0.1,-0.1 0,0 -0.1,0.1 -0.1,0.1 -0.3,0.2 -0.4,0.2 -60.3,0 -120.6,0 -181.3,0 0,0.8 0,1.4 0,2 0,19.3 0,38.7 0,58 -1.3,1.1 -2.9,1 -4.6,1 -17.9,0 -35.8,0 -53.7,0 -0.9,0 -1.9,0.1 -2.8,0.2 0,0.8 0,1.3 0,1.8 0,19.3 0,38.7 0,58 -1.3,1.1 -2.9,1 -4.6,1 -17.6,0 -35.1,0 -52.7,0 -0.9,0 -1.9,0.1 -2.8,0.2 0,0.8 0,1.3 0,1.8 0,40 0,80 0,120 -0.7,0 -1.3,0 -2,0 -2.4,-0.7 -4.3,1.1 -6.6,1 -2.5,-0.1 -5,0 -7.5,0 -13.3,0 -26.6,0 -39.9,0 -1.6,0 -3.2,0 -5,0 0,20 0,39.6 0,59.2 0,0.1 -0.1,0.3 -0.1,0.4 -0.1,0.1 -0.2,0.2 -0.1,0.1 -4.9,0.4 -9.5,1.4 -14.3,1.3 -13.8,-0.2 -27.6,-0.1 -41.4,-0.1 -1.6,0 -3.2,0 -5,0 0,10.2 -0.3,20 0.1,29.7 0.4,10 -1.5,19.9 -1.1,30.3 -19.8,0 -39.4,0 -59,0 -0.6,0 -1.2,0 -2,0 0,0.8 0,1.4 0,2 0,19.3 0,38.7 0,58 0,0.7 0,1.3 0,2 -40.2,0 -80.4,0 -120.5,0 -0.5,0.5 -0.9,0.9 -1.5,1.5 0,19 0,38.2 0,57.5 -0.3,0.3 -0.7,0.7 -1,1 -19.3,0 -38.7,0 -58,0 -0.6,0 -1.2,0 -2.6,0 0.8,1 1.2,1.5 1.6,2 0,19.3 0,38.7 0,58 -0.8,0.2 -1.9,-0.5 -2,1 -19.3,0 -38.7,0 -58,0 -0.5,0 -1,0 -1.5,0 -0.1,0.1 -0.3,0.2 -0.3,0.4 -0.1,0.1 -0.1,0.3 -0.1,0.4 0,60.3 0,120.6 0,181 -19.6,0 -39.1,0 -58.8,0 0,-80.4 0,-160.9 0,-241.7 19.7,0 39.5,0 59.1,0 1.3,-2 1.7,-3.9 1.6,-6 -0.1,-16.7 0,-33.3 0,-50 0,-1.6 0,-3.3 0,-5.1 20,0 39.8,0 59.5,0 1.4,-1.9 1.6,-4 1.6,-6.1 0,-18.7 0,-37.3 0,-56 33,0 66,0 98.9,0 3.4,0 6.7,0.8 10.1,0.9 3.3,0.2 6.7,0 10,0 0.6,0 1.2,0 2.6,0 -0.8,-1 -1.2,-1.5 -1.6,-2 0,-2.8 -0.5,-5.8 0.1,-8.5 1.7,-8.2 0.7,-16.4 0.9,-24.6 0.2,-8.3 0,-16.6 0,-25 0.3,-0.3 0.7,-0.7 1,-1 3.8,0 7.7,0 11.5,0 4,0 8,0 12,0 3.8,0 7.7,0 11.5,0 4,0 8,-0.3 12,0.1 3.8,0.3 7.3,-1.2 11.1,-1.1 0.5,0.4 1,0.8 2,1.6 0,-1.4 0,-2 0,-2.6 0,-19.3 0,-38.7 0,-58 0.3,-0.3 0.7,-0.7 1,-1 19.3,0 38.7,0 58,0 0.6,0 1.2,0 2.6,0 -0.8,-1 -1.2,-1.5 -1.6,-2 -0.1,-3.7 1.4,-7.3 1.1,-11.1 -0.4,-4 -0.1,-8 -0.1,-12 0,-3.8 0,-7.7 0,-11.5 0,-4 0,-8 0,-12 0,-3.8 0,-7.7 0,-11.5 0.3,-0.3 0.7,-0.7 1,-1 19.3,0 38.7,0 58,0 0.6,0 1.2,0 2.6,0 -0.8,-1 -1.2,-1.5 -1.6,-2 0,-39.7 0,-79.3 0,-119 0.8,-0.2 1.9,0.5 2,-1 19.1,0.6 38.5,0.6 57.8,0.6 z"
   id="path44" />
<path
   class="st8"
   d="m 307,183 c 39.7,0 79.3,0 119,0 0,0.6 0,1.2 0,2 0.8,0 1.4,0 2,0 0,32.8 0,65.6 0,98.4 0,3.5 -0.3,7 0.1,10.5 0.4,3.5 -1.3,6.7 -1.1,10.1 -0.3,1.9 -1.9,0.9 -2.8,1 -17.1,0.1 -34.2,0 -51.3,0 -20.9,0 -41.9,0 -62.8,0 -1.7,0 -3.6,0.3 -5.1,-1 0,-39.7 0,-79.3 0,-119 0.6,0 1.2,0 2,0 0,-0.8 0,-1.4 0,-2 z"
   id="path46" />
<path
   class="st8"
   d="m 185,305 c 39.7,0 79.3,0 119,0 1.4,1.7 1,3.7 1,5.6 0,37.2 0,74.4 0,111.7 0,1.3 0.1,2.7 0,4 0,0.3 -0.6,0.5 -1,0.8 -13.1,2 -26.4,0.8 -39.6,1 -13.2,0.2 -26.3,0 -39.5,0 -13.3,0 -26.6,0 -40,0 0,-0.6 0,-1.2 0,-2 -0.8,0 -1.4,0 -2,0 0,-39.7 0,-79.3 0,-119 0.6,0 1.2,0 2,0 0.1,-0.9 0.1,-1.5 0.1,-2.1 z"
   id="path48" />
<path
   class="st9"
   d="m 244,2 c 20.3,0 40.5,0 61,0 0,40.2 0,80.1 0,120 -18.5,0 -36.9,0 -55.4,0 -1.6,0 -3.2,0.2 -4.6,-1 -2,-13.1 -0.8,-26.4 -1,-39.6 -0.2,-13.2 0,-26.3 0,-39.5 0,-13.3 0,-26.6 0,-39.9 z"
   id="path50" />
<path
   class="st9"
   d="m 122,305 c -39.9,0 -79.8,0 -120,0 0,-20.5 0,-40.7 0,-61 32.8,0 65.6,0 98.4,0 3.5,0 7,0.3 10.5,-0.1 3.5,-0.4 6.7,1.3 10.1,1.1 1.2,1.3 1,3 1,4.6 0,18.5 0,36.9 0,55.4 z"
   id="path52" />
<path
   class="st2"
   d="m 304,427 c 0.3,-0.3 0.9,-0.5 1,-0.8 0.1,-1.3 0,-2.7 0,-4 0,-37.2 0,-74.4 0,-111.7 0,-1.9 0.4,-3.9 -1,-5.6 0.3,-0.3 0.7,-0.7 1,-1 1.5,1.3 3.3,1 5.1,1 20.9,0 41.9,0 62.8,0 17.1,0 34.2,0 51.3,0 0.9,0 2.4,1 2.8,-1 0.6,0 1.2,0 2,0 0,0.8 0,1.4 0,2 -0.3,0.3 -0.7,0.7 -1,1 -40.3,0 -80.5,0 -120.6,0 -0.2,0.4 -0.4,0.5 -0.4,0.6 0,40.1 0,80.2 0,120.4 -0.3,0.3 -0.7,0.7 -1,1 -0.6,0 -1.2,0 -2,0 0,-0.7 0,-1.3 0,-1.9 z"
   id="path54" />
<path
   class="st3"
   d="m 245,121 c 1.3,1.2 3,1 4.6,1 18.5,0 36.9,0 55.4,0 0,0.5 0,1 0,1.5 -0.1,0.1 -0.2,0.3 -0.3,0.3 -19.7,0 -39.3,0 -59.3,0 -0.4,-0.3 -1,-0.8 -1.9,-1.6 0.7,-0.5 1.1,-0.9 1.5,-1.2 z"
   id="path56" />
<path
   class="st3"
   d="m 122,305 c 0,-18.5 0,-36.9 0,-55.4 0,-1.6 0.2,-3.2 -1,-4.6 0.2,-0.4 0.4,-0.7 0.8,-1.4 0.8,0.6 1.4,1.1 2.1,1.7 0,19.8 0,39.6 0,59.7 -0.7,0 -1.3,0 -1.9,0 z"
   id="path58" />
<circle
   class="st2"
   cx="306"
   cy="184"
   r="1.4"
   id="circle60" />
<path
   class="st2"
   d="m 305,487 c 0.4,0.5 0.8,1 1.6,2 -1.4,0 -2,0 -2.6,0 0.2,-0.8 -0.5,-1.9 1,-2 z"
   id="path62" />
<path
   class="st2"
   d="m 183,426 c 0.6,0 1.2,0 2,0 0,0.8 0,1.4 0,2 -0.6,0 -1.2,0 -2,0 0,-0.8 0,-1.4 0,-2 z"
   id="path64" />
<circle
   class="st2"
   cx="427"
   cy="184"
   r="1.4"
   id="circle66" />
<path
   class="st2"
   d="m 185,305 c 0,0.6 0,1.2 0,2 -0.8,0 -1.4,0 -2,0 0,-0.6 0,-1.2 0,-2 0.8,0 1.4,0 2,0 z"
   id="path68" />
<path
   class="st2"
   d="m 488,304 c 0.4,0.5 0.8,1 1.6,2 -1.4,0 -2,0 -2.6,0 0.2,-0.8 -0.5,-1.9 1,-2 z"
   id="path70" />
<path
   class="st2"
   d="m 490,184 c -0.1,1.5 -1.2,0.8 -2,1 0,-0.6 0,-1.2 0,-2.6 1,0.8 1.5,1.2 2,1.6 z"
   id="path72" />
<path
   d="m 550,853 c -1.2,-1.3 -1,-3 -1,-4.6 0,-18 0,-36 0,-54.4 -2.1,0 -4.2,0 -6.3,0 -4,0 -8,0.4 -12,-0.1 -13.8,-1.8 -27.6,-0.4 -41.7,-1.1 0,-40.3 0,-80.6 0,-120.8 0.3,0 0.7,0 1,0 19.6,0 39.2,0 58.9,0 0,-20.5 0,-40.6 0,-60.8 -10,-2.3 -20.1,-1 -30,-1.2 -10.3,-0.2 -20.5,0 -30.9,0 0,7.3 0,14.1 0,20.9 0,3.3 0,6.7 0,10 0,3.2 0,6.3 0,9.5 0,3.3 0.1,6.7 0,10 -0.2,3.3 0.5,6.4 1,9.6 -0.3,0.3 -0.7,0.7 -1,1 -20.3,0 -40.7,0 -61,0 0,-19.9 0,-39.9 0,-59.9 -19.7,0 -39.2,0 -58.4,0 -0.5,-0.5 -0.9,-0.9 -1.4,-1.4 -0.4,-2.8 -1,-5.8 -1.2,-8.8 -0.2,-3.1 0,-6.3 0,-9.5 0,-13.8 0,-27.6 0,-41.4 0.7,0 1.3,0 2,0 19.3,0 38.6,0 57.5,0 0.7,-0.7 1,-1 1,-1 2,-6.7 1.5,-13.1 1.5,-19.4 0,-12.2 0,-24.3 0,-36.5 0,-1.3 0,-2.6 0,-3.9 20.2,0 40.1,0 60,0 0,7.1 0,13.9 0,20.7 0,3.3 0,6.7 0,10 0,3.2 0,6.3 0,9.5 0,3.3 0.1,6.7 0,10 -0.2,3.3 0.5,6.4 1,9.6 -0.4,0.5 -0.8,1 -1.3,1.7 8.1,0.7 57.5,0.5 61.3,-0.2 0,-0.5 0,-1 0,-1.5 0.6,0 1.2,0 1.8,0 0,-20.5 0,-40.7 0,-61.4 -0.8,0.7 -1.3,1.1 -1.8,1.4 -3.2,-0.3 -6.4,-0.8 -9.6,-1 -3.5,-0.2 -7,0 -10.5,0 -11.8,0 -23.6,0 -35.5,0 -1.5,0 -2.9,0 -4.3,0 0,-4.3 -2.3,-8.1 -1,-11.8 1.1,-3.1 0.8,-6.1 0.8,-9.1 0.1,-11.8 0,-23.6 0,-35.5 0,-1.1 0,-2.2 0,-3.6 1.8,0 3.3,0 4.7,0 14.8,0 29.6,0.1 44.5,-0.1 4,0 7.9,-0.8 11.8,-1.2 0,-19.7 0,-39.2 0,-58.7 0,-0.7 0,-1.3 0,-2 13,0 26,0 38.9,0 3.5,0 7,-0.2 10.5,0 3.5,0.2 7,0.8 10.7,1.2 0,20.3 0,40.5 0,60.9 20.2,-0.9 40,1 59.8,-1.2 0.3,0.3 0.7,0.7 1,1 0,20.3 0,40.7 0,61.1 -19.9,0.1 -39.9,0.1 -59.7,0.1 -0.4,3.8 -1,7.5 -1.2,11.2 -0.2,4 0,8 0,12 0,8.8 0,17.7 0,26.5 0,3.7 -0.5,7.5 1.5,11.2 1.2,0 2.7,0 4.1,0 14.2,0 28.3,-0.1 42.5,0.1 4.4,0.1 8.5,-1.3 12.8,-1.2 0,-20.2 0,-40 0,-59.7 40.6,-0.1 81.2,-0.1 122,-0.1 0,5.9 0,11.6 0,17.2 0,12.3 0,24.6 0,37 0,1.9 0.5,3.7 0.8,5.8 19.9,0 39.5,0 59.1,0 0,20.3 0,40.7 0,61 -0.3,0.3 -0.5,0.9 -0.8,1 -1.5,0.1 -3,0 -4.5,0 -56.8,0 -113.6,0 -170.4,0 -1.6,0 -3.3,0 -5.3,0 0,20.1 0,40.1 0,60 -0.3,0.3 -0.7,0.7 -1,1 -18.8,0 -37.6,0 -56.4,0 -1.6,0 -3.4,-0.5 -4.6,1.6 0,59.6 0,119.5 0,179.3 -19.7,0 -39.7,0 -59.7,0 z"
   id="path74" />
<path
   class="st9"
   d="m 671,672 c 0.3,-0.3 0.7,-0.7 1,-1 2.7,0 5.4,-0.3 8,0.1 12.5,1.9 25,0.7 37.6,0.9 12.5,0.2 25,0.1 37.5,0.1 12.7,0 25.3,0 38,0 12.7,0 25.3,0 38,0 12.5,0 25,0 37.5,0 12.7,0 25.3,-0.1 38,0 2.9,0 5.6,-1.8 8.6,-1 0,20.3 0,40.7 0,61 -0.3,0.3 -0.5,0.9 -0.8,1 -1.5,0.1 -3,0 -4.5,0 -36.8,0 -73.6,0 -110.3,0 -1.7,0 -3.3,0 -5.3,0 0.1,5.7 -1.3,11.2 -1.2,17 0.3,11.1 0.1,22.3 0.1,33.5 0,1.5 -0.1,3 0,4.5 0.2,1.4 0.6,2.7 1,4.1 -0.6,0 -1.2,0 -2,0 0,0.8 0,1.4 0,2 -18.5,0 -36.9,0 -55.4,0 -1.6,0 -3.5,-0.8 -4.6,2.1 0,39.1 0,79 0,118.9 -20,0 -40,0 -60,0 -0.3,0 -0.7,0 -1,0 C 671,834 671,753 671,672 Z"
   id="path76" />
<path
   class="st7"
   d="m 915,306 c 0,20 0,40 0,60 -20,0 -40,0 -60,0 -0.3,-0.3 -0.7,-0.7 -1,-1 0,-19.3 0,-38.7 0,-58 1.5,-0.1 0.8,-1.2 1,-2 18.9,0 37.8,0 56.7,0.1 1.1,0 2.7,-1 3.3,0.9 z"
   id="path78" />
<path
   class="st7"
   d="m 792,366 c -3.9,-0.1 -7.6,1.5 -11.6,1.1 -4,-0.4 -8,-0.1 -12,-0.1 -3.8,0 -7.7,0 -11.5,0 -4,0 -8,0 -12,0 -4,0 -8,0 -12,0 -0.2,-0.8 0.5,-1.9 -1,-2 0,-19.2 0,-38.5 0,-57.3 1,-1.8 2.3,-1.7 3.6,-1.7 3.8,0 7.6,0 11.5,0 3.9,0 7.6,0 11.5,0 3.7,0 7.3,0 11,0 3.8,0 7.7,-0.3 11.4,0.1 3.8,0.4 7.3,-1.2 11,-1.1 0.2,0.8 -0.5,1.9 1,2 0,19.3 0,38.7 0,58 -0.2,0.3 -0.6,0.7 -0.9,1 z"
   id="path80" />
<path
   class="st7"
   d="m 854,368 c 0,19.5 0,39 0,58.5 -4.2,0.8 -44.8,1 -60,0.3 0,-19.6 0,-39.2 0,-58.8 0,-0.7 0,-1.3 0,-2 19.7,0 39.3,0 59,0 0.2,0.8 -0.5,1.9 1,2 z"
   id="path82" />
<path
   class="st7"
   d="m 731,427 c -19.7,0 -39.3,0 -59,0 0,-0.3 0,-0.7 0,-1 0,-19.6 0,-39.1 0,-58.7 0.5,-0.2 0.8,-0.3 1.1,-0.3 3.8,0 7.6,0 11.5,0 4,0 8,0 12,0 3.8,0 7.6,0 11.5,0 4,0 8,-0.3 12,0.1 3.8,0.3 7.3,-1.2 11.1,-1.1 0.2,0.8 -0.5,1.9 1,2 0,19.3 0,38.7 0,58 -0.5,0.3 -0.9,0.7 -1.2,1 z"
   id="path84" />
<path
   class="st10"
   d="m 853,610 c 0,-20.3 0,-40.7 0,-61 0.5,0 1,0 1.5,0 0.7,0.7 0.9,45.7 0.3,61 -0.6,0 -1.2,0 -1.8,0 z"
   id="path86" />
<path
   class="st10"
   d="m 732,368 c -1.5,-0.1 -0.8,-1.2 -1,-2 0.3,-0.3 0.7,-0.7 1,-1 1.5,0.1 0.8,1.2 1,2 -0.3,0.3 -0.7,0.7 -1,1 z"
   id="path88" />
<path
   class="st10"
   d="m 794,366 c 0,0.7 0,1.3 0,2 -0.6,0 -1.2,0 -2,0 0,-0.8 0,-1.4 0,-2 0.3,-0.3 0.7,-0.7 1,-1 0.3,0.3 0.7,0.7 1,1 z"
   id="path90" />
<path
   class="st10"
   d="m 854,368 c -1.5,-0.1 -0.8,-1.2 -1,-2 0.3,-0.3 0.7,-0.7 1,-1 0.3,0.3 0.7,0.7 1,1 -0.2,0.8 0.5,1.9 -1,2 z"
   id="path92" />
<path
   class="st10"
   d="m 731,427 c 0.3,-0.3 0.7,-0.7 1,-1 1.4,0.3 1.3,1.2 0.5,1.9 -0.5,0.4 -1.5,0.3 -1.5,-0.9 z"
   id="path94" />
<path
   class="st10"
   d="m 672,426 c 0,0.3 0,0.7 0,1 -0.3,0.3 -0.7,0.7 -1,1 -0.3,-0.3 -0.7,-0.7 -1,-1 0.1,-1.5 1.2,-0.8 2,-1 z"
   id="path96" />
<path
   class="st7"
   d="m 367,733 c 0,4 0,8 0,12 0,4 0,8 0,12 0,3.8 0,7.7 0,11.5 0,4 -0.3,8 0.1,12 0.4,4 -1.2,7.7 -1.1,11.6 -1.5,0.1 -0.8,1.2 -1,2 -19.3,0 -38.7,0 -58,0 0,-0.6 0,-1.2 0,-2 -0.8,0 -1.4,0 -2,0 0.3,-4.7 0.9,-9.4 1,-14 0.1,-12.1 0,-24.2 0,-36.4 0,-2.8 0,-5.6 0,-8.2 0.4,-0.2 0.5,-0.4 0.6,-0.4 5,0 10,0 14.9,0 4.9,0 10,0 14.9,0 4.9,0 10,-0.3 14.9,0.1 4.9,0.4 9.7,-1.2 14.5,-1.1 0.5,0.2 0.9,0.6 1.2,0.9 z"
   id="path98" />
<path
   class="st7"
   d="m 427,671 c 0,20.6 0,41.2 0,62 -19.8,0 -39.4,0 -59,0 0,-0.6 0,-1.2 0,-2 -0.8,0 -1.4,0 -2,0 0,-19.6 0,-39.1 0,-58.6 0.4,-0.3 0.5,-0.4 0.6,-0.4 4,0 8,0 12,0 4.2,0 8.3,0 12.5,0 4,0 8,0 12,0 4.2,0 8.3,-0.2 12.5,0.1 3.8,0.3 7.5,-1.5 11.4,-1.1 z"
   id="path100" />
<path
   class="st7"
   d="m 368,794 c 19.6,0 39.2,0 59,0 0,19.8 0,39.4 0,59 -1.5,0.1 -0.8,1.2 -1,2 -19.3,0 -38.7,0 -58,0 0,-0.6 0,-1.2 0,-2 -0.8,0 -1.4,0 -2,0 0,-19.7 0,-39.3 0,-59 0.7,0 1.3,0 2,0 z"
   id="path102" />
<path
   class="st7"
   d="m 366,915 c -20,0 -40,0 -60,0 -1.7,-0.2 -1,-1.5 -1,-2.3 0,-9.6 0,-19.2 0,-28.9 0,-9.7 0,-19.2 0,-28.9 0.7,0 1.3,0 2,0 19.3,0 38.7,0 58,0 0.3,0 0.7,0 1,0 0,20.1 0,40.1 0,60.1 z"
   id="path104" />

<path
   class="st10"
   d="m 368,794 c -0.7,0 -1.3,0 -2,0 -0.3,0 -0.7,0 -1,0 0.2,-0.8 -0.5,-1.9 1,-2 0.6,0 1.2,0 2,0 0,0.8 0,1.4 0,2 z"
   id="path108" />
<path
   class="st10"
   d="m 366,855 c -0.3,0 -0.7,0 -1,0 0.2,-0.8 -0.5,-1.9 1,-2 0.6,0 1.2,0 2,0 0,0.8 0,1.4 0,2 -0.7,0 -1.3,0 -2,0 z"
   id="path110" />
<path
   class="st10"
   d="m 366,731 c 0.6,0 1.2,0 2,0 0,0.8 0,1.4 0,2 -0.3,0 -0.7,0 -1,0 -0.3,-0.3 -0.7,-0.7 -1,-1 0,-0.3 0,-0.7 0,-1 z"
   id="path112" />
<path
   class="st10"
   d="m 426,855 c 0.2,-0.8 -0.5,-1.9 1,-2 0.4,0.5 0.8,1 1.6,2 -1.4,0 -2,0 -2.6,0 z"
   id="path114" />
<path
   class="st10"
   d="m 490,672 c -0.3,0 -0.7,0 -1,0 -0.3,-0.3 -0.7,-0.7 -1,-1 0.3,-0.3 0.7,-0.7 1,-1 1.5,0.1 0.8,1.2 1,2 z"
   id="path116" />
<path
   class="st9"
   d="m 854,915 c -20,0 -40,0 -60,0 0,-40.7 0,-81.3 0,-122 40,0 80,0 120,0 0,19.8 0,39.6 0,59.5 -0.1,0.1 -0.2,0.3 -0.3,0.4 -0.1,0.1 -0.3,0.2 -0.4,0.2 -19.3,0 -38.6,0 -58.3,0 0,0.8 0,1.4 0,2 -0.3,1.4 -0.8,2.7 -1,4.1 -0.2,1.5 0,3 0,4.5 0,17 0,34.2 0,51.3 z"
   id="path118" />

<path
   class="st9"
   d="m 124.1,913.8 c 0,-19.6 0,-39.1 0,-58.7 39.9,0 79.6,0 119.4,0 0.7,4 0.9,45.6 0.3,58.7 -39.8,0 -79.5,0 -119.7,0 z"
   id="path122" />
<path
   class="st7"
   d="m 244,853 c -0.1,-3.7 1.4,-7.2 1.1,-11 -0.4,-4 -0.1,-8 -0.1,-11.9 0,-3.8 0,-7.6 0,-11.5 0,-4 0,-8 0,-12 0,-3.8 0,-7.6 0,-11.5 0,-0.3 0.2,-0.6 0.3,-1.1 2,0 4.2,0 6.3,0 13.6,0 27.2,-0.2 40.8,0.1 4.3,0.1 8.3,-1.4 12.5,-1.1 0.3,0.3 0.7,0.7 1,1 0,4 0,8 0,12 0,4 0,8 0,12 0,3.8 0,7.7 0,11.5 0,4 -0.3,8 0.1,12 0.4,4 -1.2,7.7 -1.1,11.6 C 284.7,853 264.3,853 244,853 Z"
   id="path124" />
<path
   class="st10"
   d="m 307,855 c -0.7,0 -1.3,0 -2,0 0,-0.7 0,-1.3 0,-2 0.6,0 1.2,0 2,0 0,0.8 0,1.4 0,2 z"
   id="path126" />

<path
   class="st9"
   d="m 855.1,243.8 c 0,-39.9 0,-79.7 0,-119.7 19.5,0 39,0 58.4,0 0.7,4.3 1,102.1 0.3,119.7 -19.4,0 -38.8,0 -58.7,0 z"
   id="path130" />
<path
   class="st7"
   d="m 793,304 c 0,-19.2 0,-38.5 0,-57.3 1,-1.8 2.3,-1.7 3.6,-1.7 6.8,0 13.6,0 20.4,0 7.8,0 15.6,-0.2 23.4,0.1 4.3,0.1 8.4,-0.8 12.5,-1.1 0,20.3 0,40.7 0,61 -3.9,-0.1 -7.6,1.5 -11.6,1.1 -4,-0.4 -8,-0.1 -12,-0.1 -3.8,0 -7.7,0 -11.5,0 -4,0 -8,0 -12,0 -4,0 -8,0 -12,0 0,-0.8 0.7,-1.9 -0.8,-2 z"
   id="path132" />
<path
   class="st10"
   d="m 855,305 c -0.2,0.8 0.5,1.9 -1,2 -1.5,-0.1 -0.8,-1.2 -1,-2 0.7,0 1.3,0 2,0 z"
   id="path134" />


<path
   class="st2"
   d="m 671,182 c 0.4,0.2 0.7,0.4 1.4,0.8 -0.6,0.8 -1.1,1.4 -1.8,2.2 -20.1,0 -40.4,0 -60.6,0 0,-0.5 0,-1 0,-1.8 0.9,-0.1 1.8,-0.2 2.8,-0.2 17.9,0 35.8,0 53.7,0 1.6,0 3.2,0.1 4.5,-1 z"
   id="path140" />
<path
   class="st2"
   d="m 610,243 c 0.4,0.2 0.7,0.4 1.4,0.8 -0.6,0.8 -1.1,1.4 -1.8,2.2 -19.8,0 -39.7,0 -59.6,0 0,-0.5 0,-1 0,-1.8 0.9,-0.1 1.8,-0.2 2.8,-0.2 17.6,0 35.1,0 52.7,0 1.6,0 3.2,0.1 4.5,-1 z"
   id="path142" />
<circle
   class="st10"
   cx="367"
   cy="489"
   r="1.4"
   id="circle144" />
<path
   class="st2"
   d="m 365,427 c 0.1,-1.5 1.2,-0.8 2,-1 0,0.6 0,1.2 0,2.6 -1,-0.8 -1.5,-1.2 -2,-1.6 z"
   id="path146" />
<path
   class="st10"
   d="m 366,548 c 0.6,0 1.2,0 2,0 0,0.8 0,1.4 0,2 -0.7,0 -1.3,0 -2,0 0,-0.7 0,-1.3 0,-2 z"
   id="path148" />
<path
   class="st10"
   d="m 550,368 c -0.6,0 -1.2,0 -2,0 0,-0.8 0,-1.4 0,-2 0.7,0 1.3,0 2,0 0,0.7 0,1.3 0,2 z"
   id="path150" />
<path
   class="st2"
   d="m 367,368 c -1.4,-0.3 -1.3,-1.2 -0.5,-1.9 0.5,-0.4 1.5,-0.3 1.5,0.9 -0.3,0.3 -0.7,0.7 -1,1 z"
   id="path152" />
<path
   class="st2"
   d="m 244,609 c 1.4,0.3 1.3,1.2 0.5,1.9 -0.5,0.4 -1.5,0.3 -1.5,-0.9 0.3,-0.3 0.7,-0.7 1,-1 z"
   id="path154" />
<path
   class="st2"
   d="m 185,610 c -0.2,0.8 0.5,1.9 -1,2 -0.4,-0.5 -0.8,-1 -1.6,-2 1.4,0 2,0 2.6,0 z"
   id="path156" />
<path
   class="st2"
   d="m 426,367 c 0.2,-0.8 -0.5,-1.9 1,-2 0.4,0.5 0.8,1 1.6,2 -1.4,0 -2,0 -2.6,0 z"
   id="path158" />



<path
   class="st12"
   d="m 489,549 c 20,0 40,0 60,0 0,0.5 0,1 0,1.5 -3.8,0.7 -53.2,0.8 -61.3,0.2 0.5,-0.7 0.9,-1.2 1.3,-1.7 z"
   id="path166" />
<path
   class="st12"
   d="m 549,549 c 0,-20 0,-40 0,-60 0.5,-0.4 1,-0.8 1.8,-1.4 0,20.8 0,40.9 0,61.4 -0.6,0 -1.2,0 -1.8,0 z"
   id="path168" />

<path
   class="st10"
   d="m 794,306 c -0.3,0.3 -0.7,0.7 -1,1 -1.5,-0.1 -0.8,-1.2 -1,-2 0.3,-0.3 0.7,-0.7 1,-1 1.5,0.1 0.8,1.2 1,2 z"
   id="path172" />

<path
   class="st10"
   d="m 307,794 c -0.3,0 -0.7,0 -1,0 -0.3,-0.3 -0.7,-0.7 -1,-1 0,-0.3 0,-0.7 0,-1 0.6,0 1.2,0 2,0 0,0.8 0,1.4 0,2 z"
   id="path176" />
</svg>
