<?xml version="1.0" encoding="UTF-8" standalone="no"?>
<!-- Generator: Adobe Illustrator 25.0.0, SVG Export Plug-In . SVG Version: 6.00 Build 0)  -->

<svg
   version="1.1"
   id="Layer_1"
   x="0px"
   y="0px"
   viewBox="0 0 916.09998 654.09998"
   xml:space="preserve"
   sodipodi:docname="AtariLogo.svg"
   width="916.09998"
   height="654.09998"
   inkscape:version="1.2.2 (b0a8486541, 2022-12-01)"
   xmlns:inkscape="http://www.inkscape.org/namespaces/inkscape"
   xmlns:sodipodi="http://sodipodi.sourceforge.net/DTD/sodipodi-0.dtd"
   xmlns="http://www.w3.org/2000/svg"
   xmlns:svg="http://www.w3.org/2000/svg"><defs
   id="defs21" /><sodipodi:namedview
   id="namedview19"
   pagecolor="#505050"
   bordercolor="#ffffff"
   borderopacity="1"
   inkscape:showpageshadow="0"
   inkscape:pageopacity="0"
   inkscape:pagecheckerboard="1"
   inkscape:deskcolor="#505050"
   showgrid="false"
   inkscape:zoom="0.48401086"
   inkscape:cx="459.70042"
   inkscape:cy="53.717802"
   inkscape:window-width="1536"
   inkscape:window-height="923"
   inkscape:window-x="0"
   inkscape:window-y="0"
   inkscape:window-maximized="1"
   inkscape:current-layer="Layer_1" />
<style
   type="text/css"
   id="style2">
	.st0{fill:#FEFEFE;}
</style>



<path
   d="m 0.1,589 c 32.5,0 65,0 97.5,0 0.1,-0.1 0.3,-0.2 0.4,-0.3 0.1,-0.1 0.2,-0.3 0.2,-0.4 0,-10.6 0,-21.3 0,-32.1 22,0 43.7,0 65.9,0 0,-11.1 0,-22 0,-33 10.8,0 21.2,0 32,0 0,-11.1 0,-22 0,-33 11.1,0 21.9,0 32.9,0 0,-10.6 0,-21.1 0,-31.3 0.3,-0.3 0.4,-0.5 0.5,-0.6 0.1,-0.1 0.3,-0.2 0.4,-0.2 10.6,0 21.3,0 32.1,0 0,-22 0,-43.7 0,-65.9 10.7,0 21.3,0 32.2,0 0,-130.9 0,-261.5 0,-392.1 22,0 44,0 66,0 0,141.6 0,283.2 0,425 -11.1,0 -21.9,0 -33.1,0 0,21.7 0,43.3 0,65.1 -11.1,0 -21.9,0 -33.1,0 0,11.1 0,22 0,33.1 -10.8,0 -21.3,0 -31.9,0 0,10.8 0,21.5 0,32.1 0,0.1 -0.1,0.3 -0.2,0.4 -0.1,0.1 -0.2,0.2 -0.6,0.5 -10.6,0 -21.4,0 -32.3,0 0,11 0,21.8 0,32.9 -11.1,0 -22,0 -33.1,0 0,10.8 0,21.3 0,31.9 -7.3,0 -14.5,0 -21.6,0 -7.3,0 -14.7,0 -22,0 -7.1,0 -14.2,-0.2 -21.3,0.1 0,11.2 0,22 0,32.9 -43.7,0 -87.3,0 -131,0 0.1,-21.8 0.1,-43.4 0.1,-65.1 z"
   id="path10" />
<path
   d="m 622.1,0 c 0,130.6 0,261.2 0,392 10.7,0 21.2,0 31.8,0 0,21.9 0,43.7 0,65.3 0.3,0.3 0.4,0.5 0.5,0.6 0.1,0.1 0.3,0.2 0.4,0.2 10.6,0 21.3,0 32.1,0 0,10.6 0,21.1 0,31.9 11.1,0 22,0 33,0 0,11.1 0,21.9 0,33 10.7,0 21.3,0 32,0 0,11.1 0,21.9 0,32.9 21.9,0 43.7,0 65.3,0 0.3,0.3 0.5,0.4 0.6,0.5 0.1,0.1 0.2,0.3 0.2,0.4 0,10.6 0,21.3 0,32.3 32.8,0 65.4,0 98,0 0,21.7 0,43.3 0,65 -43.7,0 -87.3,0 -131,0 0,-11 0,-21.9 0,-33 -21.8,0 -43.3,0 -65.1,0 0,-10.7 0,-21.3 0,-32.1 -11.1,0 -21.9,0 -33.1,0 0,-11.1 0,-22 0,-33.1 -11.1,0 -21.9,0 -32.9,0 0,-10.8 0,-21.5 0,-32.1 0,-0.1 -0.1,-0.3 -0.2,-0.4 -0.1,-0.1 -0.2,-0.2 -0.6,-0.5 -10.2,0 -20.7,0 -31.3,0 0,-11 0,-21.8 0,-32.9 -11.1,0 -22,0 -33.1,0 0,-21.8 0,-43.3 0,-64.6 -0.3,-0.2 -0.5,-0.3 -0.6,-0.3 -10.5,0 -21,0 -31.5,0 -0.1,0 -0.3,-0.1 -0.4,-0.2 -0.1,-0.1 -0.2,-0.2 -0.4,-0.3 0,-141.5 0,-283 0,-424.5 C 578.1,0 600.1,0 622.1,0 Z"
   id="path12" />


<rect
   style="fill:#000000;stroke-width:1.11296"
   id="rect385"
   width="129.88243"
   height="653.65643"
   x="393.3551"
   y="0.25996408" /></svg>
