<?xml version="1.0" encoding="UTF-8" standalone="no"?>
<!-- Generator: Adobe Illustrator 25.0.0, SVG Export Plug-In . SVG Version: 6.00 Build 0)  -->

<svg
   version="1.1"
   id="Layer_1"
   x="0px"
   y="0px"
   viewBox="0 0 857.20001 927.79999"
   xml:space="preserve"
   sodipodi:docname="Untitled-1.svg"
   width="857.20001"
   height="927.79999"
   inkscape:version="1.2.2 (b0a8486541, 2022-12-01)"
   xmlns:inkscape="http://www.inkscape.org/namespaces/inkscape"
   xmlns:sodipodi="http://sodipodi.sourceforge.net/DTD/sodipodi-0.dtd"
   xmlns="http://www.w3.org/2000/svg"
   xmlns:svg="http://www.w3.org/2000/svg"><defs
   id="defs95" /><sodipodi:namedview
   id="namedview93"
   pagecolor="#505050"
   bordercolor="#ffffff"
   borderopacity="1"
   inkscape:showpageshadow="0"
   inkscape:pageopacity="0"
   inkscape:pagecheckerboard="1"
   inkscape:deskcolor="#505050"
   showgrid="false"
   inkscape:zoom="0.3416911"
   inkscape:cx="323.39151"
   inkscape:cy="114.13818"
   inkscape:window-width="1536"
   inkscape:window-height="923"
   inkscape:window-x="0"
   inkscape:window-y="0"
   inkscape:window-maximized="1"
   inkscape:current-layer="Layer_1" />
<style
   type="text/css"
   id="style2">
	.st0{fill:#FEFEFE;}
	.st1{fill:#E0E0E0;}
	.st2{fill:#DFDFDF;}
	.st3{fill:#DFE0E0;}
	.st4{fill:#DEDEDC;}
	.st5{fill:#DCDCDA;}
	.st6{fill:#E0E0DF;}
	.st7{fill:#DEDDDC;}
	.st8{fill:#DDDCDA;}
	.st9{fill:#DEDDDD;}
	.st10{fill:#DCDCDB;}
	.st11{fill:#DEDEDD;}
	.st12{fill:#FEFDFD;}
	.st13{fill:#FEFEFD;}
</style>
<path
   d="m 857.1,526.8 c 0,38 0,76 0,114 -19,0 -37.9,0 -57,0 0,38.1 0,75.9 0,114 -19.1,0 -38,0 -57.1,0 0,19.1 0,37.9 0,57.1 -19.1,0 -38,0 -57.1,0 0,19.1 0,37.9 0,56.6 -0.3,0.1 -0.5,0.3 -0.6,0.3 -37.5,0 -75,0 -112.5,0 -0.1,0 -0.3,0.1 -0.4,0.2 -0.1,0.1 -0.2,0.2 -0.4,0.3 0,19.5 0,39 0,58.5 -57,0 -114,0 -171,0 0,-19.6 0,-39.2 0,-59 -38.8,0 -77.2,0 -116,0 0,-19.1 0,-38 0,-57 -19.1,0 -37.9,0 -57,0 0,-19.1 0,-38 0,-57 -19.1,0 -37.9,0 -57,0 0,-38.1 0,-76 0,-114 -19.1,0 -37.9,0 -56.7,0 -0.7,-17.3 -0.4,-109.6 0.4,-114 18.7,0 37.5,0 56.5,0 0,-38 0,-75.8 0,-113.9 19.1,0 38,0 57,0 0,-19.1 0,-37.9 0,-57 38.1,0 76,0 114,0 0,-38.1 0,-75.9 0,-113.9 38.5,0 76.8,0 115.1,0 0.1,0 0.3,-0.1 0.4,-0.2 0.1,-0.1 0.2,-0.2 0.4,-0.3 0,-18.9 0,-37.7 0,-56.5 18.9,0 37.9,0 57,0 0,19 0,37.6 0,56.2 0,0.1 0.1,0.3 0.2,0.4 0.1,0.1 0.2,0.2 0.5,0.5 37.6,0 75.4,0 113.3,0 0,37.8 0,75.4 0,113.1 0,0.1 0.1,0.3 0.2,0.4 0.1,0.1 0.2,0.3 0.4,0.5 37.7,0 75.4,0 113.4,0 0,18.8 0,37.4 0,56.1 0,0.1 0.1,0.3 0.2,0.4 0.1,0.1 0.2,0.2 0.5,0.5 18.6,0 37.4,0 56.3,0 0,37.8 0,75.4 0,113.1 0,0.1 0.1,0.3 0.2,0.4 0.1,0.1 0.2,0.2 0.4,0.3 18.8,-0.1 37.6,-0.1 56.4,-0.1 z m -305,228 c -0.7,0 -1.3,0 -2,0 -5,0 -10,0 -15,0 -0.7,0 -1.3,0 -2,0 -0.7,0 -1.3,0 -2,0 -5.3,0 -10.5,0 -16,0 0,5.8 0,11.4 0,17 0,1 0,2 0,3 0,12.3 0,24.6 0,36.8 15.2,0.6 52.8,0.4 57,-0.3 0,-12.2 0,-24.3 0,-36.5 0,-6.7 0,-13.3 0,-20 6,0 12,0 18,0 6.3,0 12.7,0 19,0 6.6,0 13.2,0 20,0 0,-31.5 0,-62.8 0,-94 0,-6.6 0,-13.2 0,-20 -6.2,0 -12.1,0 -18,0 -0.7,0 -1.3,0 -2,0 -0.7,0 -1.3,0 -2,0 -6,0 -12,0 -18,0 -1,0 -2,0 -3,0 -4.6,0 -9.2,0 -14,0 0,5.8 0,11.4 0,17 0,1 0,2 0,3 0,31.3 0,62.7 0,94 -0.7,0 -1.3,0 -2,0 -5.3,0 -10.7,0 -16,0 -0.7,0 -1.3,0 -2,0 z m -190,-228 c 5.7,0 11.3,0 17,0 0.7,0 1.3,0 2,0 6.6,0 13.2,0 20,0 0,-7.2 0,-14.1 0,-21 0,-11.9 0,-23.8 0,-36 -6.8,0 -13.4,0 -20,0 -6.3,0 -12.7,0 -19,0 -6.6,0 -13.2,0 -20,0 0,12.5 0,24.8 0,37 0,0.7 0,1.3 0,2 0,5.9 0,11.8 0,18 5.8,0 11.4,0 17,0 1,0 2,0 3,0 z"
   id="path4" />




<path
   d="m 0.1,184.8 c 18.8,0 37.6,0 56.5,0 0.8,4.1 1,42 0.3,57 -18.9,0 -37.9,0 -56.8,0 0,-19 0,-38 0,-57 z"
   id="path14" />
<path
   class="st1"
   d="m 572.1,774.8 c 0,12.2 0,24.3 0,36.5 -4.2,0.8 -41.8,1 -57,0.3 0,-12.3 0,-24.5 0,-36.8 1,0 2,0 3,0 0,11.3 0,22.6 0,33.8 15.2,0.6 47.8,0.4 52,-0.3 0,-11.2 0,-22.3 0,-33.5 0.7,0 1.3,0 2,0 z"
   id="path16" />
<path
   class="st2"
   d="m 572.1,754.8 c 0,-31.3 0,-62.7 0,-94 1,0 2,0 3,0 0,30.1 0,60.2 0,90.2 0,0.1 0.1,0.3 0.2,0.4 0.1,0.1 0.2,0.2 0.4,0.3 4.8,0 9.6,0 14.5,0 0,1 0,2 0,3 -6.1,0.1 -12.1,0.1 -18.1,0.1 z"
   id="path18" />
<path
   class="st2"
   d="m 629.1,660.8 c 0,31.2 0,62.5 0,94 -6.8,0 -13.4,0 -20,0 0,-1 0,-2 0,-3 5.9,0 11.9,0 18,0 0,-30.5 0,-60.8 0,-91 0.7,0 1.3,0 2,0 z"
   id="path20" />
<path
   class="st3"
   d="m 342.1,506.8 c 0,-12.2 0,-24.5 0,-37 6.8,0 13.4,0 20,0 0,0.7 0,1.3 0,2 -5.9,0 -11.9,0 -18,0 0,11.9 0,23.4 0,35 -0.7,0 -1.3,0 -2,0 z"
   id="path22" />
<path
   class="st3"
   d="m 381.1,469.8 c 6.6,0 13.2,0 20,0 0,12.2 0,24.1 0,36 -0.7,0 -1.3,0 -2,0 0,-11.2 0,-22.5 0,-34 -6.1,0 -12.1,0 -18,0 0,-0.7 0,-1.3 0,-2 z"
   id="path24" />
<path
   class="st1"
   d="m 399.1,505.8 c 0.7,0 1.3,0 2,0 0,6.9 0,13.8 0,21 -6.8,0 -13.4,0 -20,0 0,-1 0,-2 0,-3 5.9,0 11.8,0 18,0 0,-6.2 0,-12.1 0,-18 z"
   id="path26" />
<path
   class="st4"
   d="m 359.1,526.8 c -5.6,0 -11.2,0 -17,0 0,-6.2 0,-12.1 0,-18 0.7,0 1.3,0 2,0 0,4.9 0,9.8 0,15 5.2,0 10.1,0 15,0 0,1 0,2 0,3 z"
   id="path28" />
<path
   class="st5"
   d="m 515.1,771.8 c 0,-5.6 0,-11.2 0,-17 5.5,0 10.7,0 16,0 0,0.7 0,1.3 0,2 -4.3,0 -8.5,0 -13,0 0,5.2 0,10.1 0,15 -1,0 -2,0 -3,0 z"
   id="path30" />
<path
   class="st4"
   d="m 572.1,657.8 c 0,-5.6 0,-11.2 0,-17 4.8,0 9.4,0 14,0 0,0.7 0,1.3 0,2 -3.6,0 -7.2,0 -11,0 0,5.2 0,10.1 0,15 -1,0 -2,0 -3,0 z"
   id="path32" />
<path
   class="st5"
   d="m 629.1,660.8 c -0.7,0 -1.3,0 -2,0 0,-5.9 0,-11.8 0,-18 -5.5,0 -10.7,0 -16,0 0,-0.7 0,-1.3 0,-2 5.9,0 11.8,0 18,0 0,6.8 0,13.4 0,20 z"
   id="path34" />
<ellipse
   class="st6"
   cx="599.59998"
   cy="753.29999"
   rx="13.4"
   ry="2.0999999"
   id="ellipse36" />
<ellipse
   class="st7"
   cx="370.60001"
   cy="525.29999"
   rx="12"
   ry="2.0999999"
   id="ellipse38" />
<path
   class="st8"
   d="m 572.1,774.8 c -0.7,0 -1.3,0 -2,0 0,-6 0,-12 0,-18 0,-0.7 0,-1.3 0,-2 0.7,0 1.3,0 2,0 0,6.7 0,13.3 0,20 z"
   id="path40" />
<ellipse
   class="st4"
   cx="371.60001"
   cy="470.79999"
   rx="13.4"
   ry="1.4"
   id="ellipse42" />
<ellipse
   class="st1"
   cx="598.09998"
   cy="641.79999"
   rx="12.7"
   ry="1.4"
   id="ellipse44" />
<ellipse
   class="st8"
   cx="562.09998"
   cy="755.79999"
   rx="11.3"
   ry="1.4"
   id="ellipse46" />
<ellipse
   class="st1"
   cx="542.59998"
   cy="755.79999"
   rx="10.6"
   ry="1.4"
   id="ellipse48" />
<circle
   class="st4"
   cx="573.59998"
   cy="659.29999"
   r="2.0999999"
   id="circle50" />
<circle
   class="st4"
   cx="360.60001"
   cy="525.29999"
   r="2.0999999"
   id="circle52" />
<circle
   class="st5"
   cx="516.59998"
   cy="773.29999"
   r="2.0999999"
   id="circle54" />
<ellipse
   class="st9"
   cx="380.10001"
   cy="525.29999"
   rx="1.4"
   ry="2.0999999"
   id="ellipse56" />
<ellipse
   class="st4"
   cx="587.59998"
   cy="641.79999"
   rx="2.0999999"
   ry="1.4"
   id="ellipse58" />
<circle
   class="st1"
   cx="608.09998"
   cy="641.79999"
   r="1.4"
   id="circle60" />
<circle
   class="st10"
   cx="610.09998"
   cy="641.79999"
   r="1.4"
   id="circle62" />
<circle
   class="st11"
   cx="343.10001"
   cy="507.79999"
   r="1.4"
   id="circle64" />
<circle
   class="st10"
   cx="532.09998"
   cy="755.79999"
   r="1.4"
   id="circle66" />
<circle
   class="st1"
   cx="534.09998"
   cy="755.79999"
   r="1.4"
   id="circle68" />
<circle
   class="st1"
   cx="551.09998"
   cy="755.79999"
   r="1.4"
   id="circle70" />
<circle
   class="st8"
   cx="553.09998"
   cy="755.79999"
   r="1.4"
   id="circle72" />
<path
   d="m 342.1,68.799999 c 19.6,0 39.2,0 59,0 0,19.2 0,38.100001 0,57.000001 -19.6,0 -39.2,0 -59,0 0,-19.2 0,-38.100001 0,-57.000001 z"
   id="path74" />
<path
   d="m 401.1,125.8 c 18.9,0 37.8,0 57,0 0,19.8 0,39.4 0,59 -18.9,0 -37.8,0 -57,0 0,-19.8 0,-39.4 0,-59 z"
   id="path76" />
<path
   d="m 57.3,68.899999 c 18.9,0 37.7,0 56.7,0 0,18.8 0,37.600001 0,56.400001 -4,0.7 -40.5,1 -56.7,0.3 0,-18.7 0,-37.500001 0,-56.700001 z"
   id="path78" />
<path
   d="m 228,68.899999 c 0,18.8 0,37.700001 0,56.800001 -18.9,0 -37.7,0 -56.6,0 0,-18.8 0,-37.700001 0,-56.800001 18.8,0 37.8,0 56.6,0 z"
   id="path80" />
<path
   d="m 171.2,241.7 c 0,-18.8 0,-37.7 0,-56.7 18.9,0 37.7,0 56.6,0 0,18.8 0,37.7 0,56.7 -18.8,0 -37.8,0 -56.6,0 z"
   id="path82" />
<path
   d="m 171,241.9 c 0,18.8 0,37.7 0,56.8 -18.9,0 -37.7,0 -56.6,0 0,-18.8 0,-37.7 0,-56.8 18.8,0 37.8,0 56.6,0 z"
   id="path84" />



<rect
   style="fill:#000000;fill-opacity:1;stroke-width:1.23182"
   id="rect459"
   width="113.77119"
   height="57.521187"
   x="228.17796"
   y="11.122881" /></svg>
