<?xml version="1.0" encoding="UTF-8" standalone="no"?>
<!-- Generator: Adobe Illustrator 25.0.0, SVG Export Plug-In . SVG Version: 6.00 Build 0)  -->

<svg
   version="1.1"
   id="Layer_1"
   x="0px"
   y="0px"
   viewBox="0 0 1240 1072"
   xml:space="preserve"
   sodipodi:docname="Untitled-1.svg"
   width="1240"
   height="1072"
   inkscape:version="1.2.2 (b0a8486541, 2022-12-01)"
   xmlns:inkscape="http://www.inkscape.org/namespaces/inkscape"
   xmlns:sodipodi="http://sodipodi.sourceforge.net/DTD/sodipodi-0.dtd"
   xmlns="http://www.w3.org/2000/svg"
   xmlns:svg="http://www.w3.org/2000/svg"><defs
   id="defs15" /><sodipodi:namedview
   id="namedview13"
   pagecolor="#505050"
   bordercolor="#ffffff"
   borderopacity="1"
   inkscape:showpageshadow="0"
   inkscape:pageopacity="0"
   inkscape:pagecheckerboard="1"
   inkscape:deskcolor="#505050"
   showgrid="false"
   inkscape:zoom="0.19666667"
   inkscape:cx="587.28814"
   inkscape:cy="538.98305"
   inkscape:window-width="1536"
   inkscape:window-height="923"
   inkscape:window-x="0"
   inkscape:window-y="0"
   inkscape:window-maximized="1"
   inkscape:current-layer="Layer_1" />
<style
   type="text/css"
   id="style2">
	.st0{fill:#EDEDED;}
</style>
<path
   d="m 1240,1072 c -413.3,0 -826.7,0 -1240,0 C 0,714.7 0,357.3 0,0 c 413.3,0 826.7,0 1240,0 0,357.3 0,714.7 0,1072 z M 4.2,8.1 c 0,352.2 0,704 0,1055.8 20.6,0.8 1227.3,0.5 1231.7,-0.3 0,-351.8 0,-703.6 0,-1055.4 C 825.2,8.1 414.8,8.1 4.2,8.1 Z"
   id="path4" />
<path
   class="st0"
   d="m 4.2,8.1 c 410.6,0 821,0 1231.7,0 0,351.8 0,703.6 0,1055.4 -4.4,0.8 -1211.1,1.2 -1231.7,0.3 0,-351.7 0,-703.5 0,-1055.7 z M 1228,1047.9 c 0,-170.9 0,-341.4 0,-511.9 0,-170.6 0,-341.2 0,-511.8 -18.8,-0.8 -1211.5,-0.5 -1215.8,0.3 0,341.1 0,682.2 0,1023.4 405.2,0 810.4,0 1215.8,0 z"
   id="path6" />
<path
   d="m 1228,1047.9 c -405.4,0 -810.6,0 -1215.8,0 0,-341.2 0,-682.3 0,-1023.4 4.3,-0.8 1197.1,-1.1 1215.8,-0.3 0,170.6 0,341.2 0,511.8 0,170.5 0,341 0,511.9 z M 20.1,1031.8 c 400.2,0 800,0 1199.8,0 0.9,-22.6 0.5,-987.3 -0.4,-991.6 -399.8,0 -799.6,0 -1199.4,0 0,330.6 0,661 0,991.6 z"
   id="path8" />
<path
   class="st0"
   d="m 20.1,1031.8 c 0,-330.6 0,-661 0,-991.6 399.8,0 799.6,0 1199.4,0 0.8,4.4 1.2,969.1 0.4,991.6 -399.8,0 -799.6,0 -1199.8,0 z"
   id="path10" />
</svg>
